<svg width="16" height="16" viewBox="0 0 16 16" fill="none" xmlns="http://www.w3.org/2000/svg">
<path d="M15.3613 6.61182C15.7121 6.61197 15.9971 6.9052 15.9971 7.26514V11.0552C15.9971 11.4151 15.7121 11.7084 15.3613 11.7085H15.0957L15.4092 12.6147C15.4742 12.8034 15.3782 13.0107 15.1943 13.0776C15.1554 13.0918 15.1153 13.0981 15.0762 13.0981C14.9307 13.0981 14.7946 13.0055 14.7432 12.8569L14.3457 11.7085H1.65137L1.25488 12.8569C1.2035 13.0055 1.06722 13.098 0.921875 13.0981C0.882779 13.0981 0.842679 13.0917 0.803711 13.0776C0.619815 13.0108 0.522919 12.8035 0.587891 12.6147L0.901367 11.7085H0.636719C0.285816 11.7085 7.23993e-06 11.4152 0 11.0552V7.26514C0 6.90511 0.285812 6.61182 0.636719 6.61182H15.3613ZM12.8936 2.6665C13.8098 2.6665 14.5557 3.43149 14.5557 4.37158V5.95068H1.44238V4.37158C1.44238 3.43161 2.1874 2.6667 3.10352 2.6665H12.8936Z" fill="#4A4A4A"/>
</svg>
