<svg width="16" height="16" viewBox="0 0 16 16" fill="none" xmlns="http://www.w3.org/2000/svg">
<path d="M12.1831 0.666504C12.2943 0.666504 12.3851 0.756528 12.3853 0.867676V1.06787C12.3852 1.16508 12.316 1.24622 12.2241 1.26514L12.1421 1.27295C12.0504 1.29182 11.9819 1.37388 11.9819 1.47119V2.67529C11.9822 2.78639 12.072 2.87646 12.1831 2.87646H13.5884C13.6996 2.87646 13.7894 2.96644 13.7896 3.07764V3.27783C13.7894 3.38902 13.6996 3.479 13.5884 3.479H13.188C13.0768 3.479 12.9861 3.56907 12.9858 3.68018V14.5288C12.9858 14.6401 13.0767 14.73 13.188 14.73H13.9897C14.1011 14.73 14.1919 14.8208 14.1919 14.9321V15.1313C14.1919 15.2427 14.1011 15.3335 13.9897 15.3335H8.76709V11.646H6.98096V15.3335H1.53467C1.42352 15.3333 1.3335 15.2425 1.3335 15.1313V14.9321C1.3335 14.8209 1.42352 14.7302 1.53467 14.73H2.3374C2.44871 14.73 2.53857 14.6401 2.53857 14.5288V3.68018C2.53834 3.56907 2.44857 3.479 2.3374 3.479H1.93701C1.82579 3.479 1.735 3.38902 1.73486 3.27783V3.07764C1.73499 2.96644 1.82578 2.87646 1.93701 2.87646H3.34229C3.45323 2.87622 3.54321 2.78623 3.54346 2.67529V1.47119C3.54346 1.36004 3.45338 1.26929 3.34229 1.26904C3.23103 1.26904 3.14021 1.17911 3.14014 1.06787V0.867676C3.14032 0.756528 3.23109 0.666504 3.34229 0.666504H12.1831ZM4.64893 10.7124C4.15032 10.7124 3.7447 11.1183 3.74463 11.6167V13.1235H5.75342V11.6167C5.75334 11.1184 5.34763 10.7125 4.84912 10.7124H4.64893ZM10.6763 10.7124C10.1777 10.7125 9.77205 11.1183 9.77197 11.6167V13.1235H11.7808V11.6167C11.7807 11.1184 11.3749 10.7126 10.8765 10.7124H10.6763ZM4.64893 7.29639C4.15028 7.29641 3.74463 7.70301 3.74463 8.20166V9.70752H5.75342V8.20166C5.75342 7.70308 5.34768 7.29652 4.84912 7.29639H4.64893ZM7.6626 7.29639C7.16396 7.29642 6.7583 7.70302 6.7583 8.20166V9.70752H8.76709V8.20166C8.76709 7.70307 8.36136 7.29651 7.86279 7.29639H7.6626ZM10.6763 7.29639C10.1776 7.29644 9.77197 7.70302 9.77197 8.20166V9.70752H11.7808V8.20166C11.7808 7.70312 11.375 7.2966 10.8765 7.29639H10.6763ZM4.64893 4.08252C4.15028 4.08254 3.74463 4.48816 3.74463 4.98682V6.49268H5.75342V4.98682C5.75342 4.48823 5.34768 4.08265 4.84912 4.08252H4.64893ZM7.6626 4.08252C7.16396 4.08256 6.7583 4.48817 6.7583 4.98682V6.49268H8.76709V4.98682C8.76709 4.48822 8.36136 4.08264 7.86279 4.08252H7.6626ZM10.6763 4.08252C10.1776 4.08257 9.77197 4.48818 9.77197 4.98682V6.49268H11.7808V4.98682C11.7808 4.48828 11.375 4.08273 10.8765 4.08252H10.6763Z" fill="#4A4A4A"/>
</svg>
