<svg width="16" height="16" viewBox="0 0 16 16" fill="none" xmlns="http://www.w3.org/2000/svg">
<path fill-rule="evenodd" clip-rule="evenodd" d="M12.4518 9.95402C12.3564 10.0512 12.3128 10.1911 12.3353 10.3281L12.9371 13.9894C13.0083 14.4225 12.8408 14.8523 12.4995 15.1114C12.3097 15.2555 12.0835 15.3327 11.8508 15.3327C11.6719 15.3327 11.4957 15.287 11.3359 15.1992L8.18553 13.4704C8.06912 13.4067 7.93055 13.4067 7.81419 13.4704L4.66415 15.1992C4.28901 15.4054 3.84263 15.3717 3.50049 15.1114C3.15913 14.8523 2.99169 14.4225 3.06285 13.9894L3.66437 10.3278C3.68691 10.191 3.64317 10.0508 3.54789 9.95375L0.999342 7.36091C0.69748 7.05385 0.590978 6.60344 0.720994 6.18512C0.851507 5.7662 1.19243 5.46625 1.6112 5.40289L5.13354 4.86839C5.26393 4.84857 5.37694 4.76291 5.43544 4.63892L7.01047 1.30759C7.19697 0.91282 7.57662 0.666504 7.99983 0.666504C8.42328 0.666504 8.80297 0.912766 8.98949 1.30757L10.5643 4.63897C10.6228 4.76302 10.7356 4.84859 10.8658 4.86839L14.3882 5.40259C14.8073 5.46627 15.1482 5.76622 15.2787 6.18517C15.4087 6.60344 15.3022 7.05385 15.0003 7.36091L12.4518 9.95402Z" fill="#4A4A4A"/>
</svg>
